<?xml version="1.0" encoding="UTF-8" standalone="no"?>
<svg
   xmlns:dc="http://purl.org/dc/elements/1.1/"
   xmlns:cc="http://creativecommons.org/ns#"
   xmlns:rdf="http://www.w3.org/1999/02/22-rdf-syntax-ns#"
   xmlns:svg="http://www.w3.org/2000/svg"
   xmlns="http://www.w3.org/2000/svg"
   xmlns:sodipodi="http://sodipodi.sourceforge.net/DTD/sodipodi-0.dtd"
   xmlns:inkscape="http://www.inkscape.org/namespaces/inkscape"
   width="644.70374mm"
   height="147.7989mm"
   viewBox="0 0 644.70374 147.7989"
   version="1.1"
   id="svg8"
   sodipodi:docname="drawing.svg"
   inkscape:version="1.0.2 (e86c870879, 2021-01-15, custom)">
  <defs
     id="defs2">
    <linearGradient
       id="id_idp289761280"
       gradientUnits="userSpaceOnUse"
       x1="0.0023565781"
       y1="148.49852"
       x2="210.00421"
       y2="148.49852">
      <stop
         offset="0"
         stop-color="#0970B3"
         id="stop36" />
      <stop
         offset="0.0368042"
         stop-color="#0970B3"
         id="stop38" />
      <stop
         offset="0.538718"
         stop-color="#0A4F9A"
         id="stop40" />
      <stop
         offset="0.889572"
         stop-color="#0C2F82"
         id="stop42" />
      <stop
         offset="1"
         stop-color="#0C2F82"
         id="stop44" />
    </linearGradient>
    <linearGradient
       id="id_idp289764352"
       gradientUnits="userSpaceOnUse"
       x1="-0.0028283012"
       y1="148.50209"
       x2="209.99811"
       y2="148.50209">
      <stop
         offset="0"
         stop-color="#0970B3"
         id="stop53" />
      <stop
         offset="0.0368042"
         stop-color="#0970B3"
         id="stop55" />
      <stop
         offset="0.538718"
         stop-color="#0A4F9A"
         id="stop57" />
      <stop
         offset="0.889572"
         stop-color="#0C2F82"
         id="stop59" />
      <stop
         offset="1"
         stop-color="#0C2F82"
         id="stop61" />
    </linearGradient>
    <clipPath
       id="clippath_idp289769216">
      <path
         d="M 0,0 H 691.2 V 174.72 H 0 Z"
         id="path70" />
    </clipPath>
    <linearGradient
       id="id_idp289772288"
       gradientUnits="userSpaceOnUse"
       x1="0.0023565781"
       y1="148.49733"
       x2="210.00421"
       y2="148.49733">
      <stop
         offset="0"
         stop-color="#0970B3"
         id="stop83" />
      <stop
         offset="0.0368042"
         stop-color="#0970B3"
         id="stop85" />
      <stop
         offset="0.538718"
         stop-color="#0A4F9A"
         id="stop87" />
      <stop
         offset="0.889572"
         stop-color="#0C2F82"
         id="stop89" />
      <stop
         offset="1"
         stop-color="#0C2F82"
         id="stop91" />
    </linearGradient>
    <linearGradient
       id="id_idp289778048"
       gradientUnits="userSpaceOnUse"
       x1="-0.0028283012"
       y1="148.5009"
       x2="209.99811"
       y2="148.5009">
      <stop
         offset="0"
         stop-color="#0970B3"
         id="stop100" />
      <stop
         offset="0.0368042"
         stop-color="#0970B3"
         id="stop102" />
      <stop
         offset="0.538718"
         stop-color="#0A4F9A"
         id="stop104" />
      <stop
         offset="0.889572"
         stop-color="#0C2F82"
         id="stop106" />
      <stop
         offset="1"
         stop-color="#0C2F82"
         id="stop108" />
    </linearGradient>
  </defs>
  <sodipodi:namedview
     id="base"
     pagecolor="#ffffff"
     bordercolor="#666666"
     borderopacity="1.0"
     inkscape:pageopacity="0.0"
     inkscape:pageshadow="2"
     inkscape:zoom="0.58"
     inkscape:cx="1485.0241"
     inkscape:cy="259.97248"
     inkscape:document-units="mm"
     inkscape:current-layer="layer1"
     inkscape:document-rotation="0"
     showgrid="false"
     inkscape:window-width="3283"
     inkscape:window-height="1748"
     inkscape:window-x="3992"
     inkscape:window-y="152"
     inkscape:window-maximized="0" />
  <metadata
     id="metadata5">
    <rdf:RDF>
      <cc:Work
         rdf:about="">
        <dc:format>image/svg+xml</dc:format>
        <dc:type
           rdf:resource="http://purl.org/dc/dcmitype/StillImage" />
      </cc:Work>
    </rdf:RDF>
  </metadata>
  <g
     inkscape:label="Layer 1"
     inkscape:groupmode="layer"
     id="layer1"
     transform="translate(-40.5383,-25.1651)">
    <g
       id="g412">
      <path
         d="m 79.8724,143.305 c -1.1866,2.337 -2.809,4.272 -4.8653,5.806 -2.0563,1.535 -4.4304,2.651 -7.1136,3.348 -2.6851,0.696 -5.4912,1.046 -8.4211,1.046 -2.9991,0 -5.9808,-0.209 -8.9434,-0.628 -2.9654,-0.418 -5.8771,-1.115 -8.736,-2.092 -0.6269,-0.487 -1.0454,-1.08 -1.2547,-1.778 v -3.767 c 0,-0.486 0.1728,-0.942 0.5222,-1.36 0.3495,-0.419 0.8016,-0.629 1.3604,-0.629 0.766,0 1.4467,0.194 2.04,0.576 0.5923,0.383 1.2364,0.716 1.9363,0.995 2.0909,0.768 4.2182,1.377 6.3811,1.831 2.159,0.453 4.3574,0.678 6.5904,0.678 1.8826,0 3.7459,-0.225 5.5958,-0.678 1.8471,-0.454 3.5223,-1.167 5.0218,-2.145 1.4995,-0.976 2.7024,-2.232 3.6086,-3.766 0.9063,-1.535 1.3604,-3.382 1.3604,-5.545 0,-3.348 -0.8362,-6.067 -2.5104,-8.159 -1.6733,-2.092 -3.7652,-3.887 -6.2775,-5.389 -2.5104,-1.498 -5.2483,-2.876 -8.2109,-4.131 -2.9644,-1.255 -5.7024,-2.756 -8.2128,-4.498 -2.5113,-1.742 -4.6032,-3.905 -6.2764,-6.487 -1.6743,-2.578 -2.5114,-5.963 -2.5114,-10.1478 0,-2.9972 0.5405,-5.6314 1.6224,-7.8979 1.081,-2.2647 2.544,-4.1319 4.393,-5.5969 1.847,-1.4649 4.0099,-2.5622 6.4857,-3.2937 2.4749,-0.7335 5.1082,-1.1002 7.8999,-1.1002 2.6486,0 5.3347,0.1757 8.0544,0.5242 2.7206,0.3494 5.3356,0.9773 7.8441,1.8825 0.6288,0.4887 1.0483,1.082 1.2576,1.7799 v 3.2409 c 0,0.4897 -0.1574,0.9428 -0.4713,1.3613 -0.314,0.4167 -0.7498,0.6269 -1.3076,0.6269 -0.2793,0 -0.6288,-0.0672 -1.0464,-0.2102 l 0.2093,0.1046 C 74.4321,87.388 73.1591,86.9887 72.0781,86.6047 70.9962,86.2226 69.9517,85.8904 68.9408,85.6101 67.929,85.3327 66.8481,85.1052 65.697,84.9314 c -1.151,-0.1728 -2.5641,-0.263 -4.2374,-0.263 -1.8125,0 -3.5549,0.2102 -5.2291,0.6288 -1.6743,0.4185 -3.1565,1.0972 -4.4458,2.039 -1.2912,0.9427 -2.3194,2.1293 -3.0874,3.5568 -0.768,1.4314 -1.15,3.192 -1.15,5.2839 0,3.3484 0.8361,6.0151 2.5104,8.0031 1.9442,1.987 3.7833,3.714 6.3292,5.179 2.545,1.463 5.2829,2.806 8.2109,4.027 2.9309,1.22 5.6669,2.719 8.2138,4.498 2.544,1.778 4.655,3.992 6.3264,6.643 1.6752,2.65 2.5123,6.103 2.5123,10.357 0,3.278 -0.5933,6.085 -1.7779,8.421 z"
         fill="#0071bc"
         id="path10" />
      <path
         d="m 129.041,107.474 c -0.768,1.884 -1.797,4.273 -3.086,7.166 -1.292,2.896 -2.789,6.173 -4.498,9.834 -1.71,3.661 -3.453,7.445 -5.232,11.351 -1.778,3.906 -3.574,7.812 -5.388,11.717 -1.812,3.905 -3.487,7.496 -5.02,10.775 -1.534,3.277 -2.86,6.153 -3.976,8.628 -1.115,2.478 -1.9197,4.273 -2.4055,5.389 l -1.2556,0.63 h -3.3476 c -0.4905,0 -0.959,-0.142 -1.4121,-0.421 -0.4551,-0.277 -0.6807,-0.697 -0.6807,-1.255 0,-0.487 0.4176,-1.674 1.2557,-3.556 0.8371,-1.883 1.7952,-3.941 2.8771,-6.172 1.081,-2.232 2.1264,-4.36 3.1387,-6.382 1.01,-2.023 1.656,-3.452 1.934,-4.289 -0.348,-0.837 -1.081,-2.544 -2.1965,-5.126 -1.1165,-2.579 -2.3702,-5.561 -3.7651,-8.944 -1.3959,-3.383 -2.8781,-6.938 -4.4458,-10.673 -1.5696,-3.727 -3.0182,-7.18 -4.3411,-10.354 -1.3248,-3.175 -2.4067,-5.823 -3.2438,-7.951 -0.8372,-2.126 -1.2548,-3.294 -1.2548,-3.505 0,-0.766 0.2957,-1.272 0.888,-1.517 0.5924,-0.243 1.2039,-0.366 1.8317,-0.366 l 2.5104,0.105 1.3584,0.732 16.6346,39.649 c 3.139,-6.556 6.119,-13.146 8.946,-19.773 2.824,-6.625 5.665,-13.249 8.525,-19.876 l 1.36,-0.732 h 3.451 c 0.488,0 0.942,0.14 1.362,0.419 0.418,0.278 0.626,0.698 0.626,1.253 0,0.281 -0.384,1.362 -1.15,3.244 z"
         fill-rule="nonzero"
         fill="#0071bc"
         id="path12" />
      <path
         d="m 169.891,146.338 c -1.011,1.71 -2.354,3.086 -4.026,4.131 -1.675,1.049 -3.558,1.816 -5.651,2.302 -2.091,0.489 -4.184,0.734 -6.276,0.734 -2.233,0 -4.535,-0.209 -6.905,-0.628 -2.372,-0.419 -4.602,-1.046 -6.694,-1.884 l -0.837,-1.254 v -3.662 c 0,-0.557 0.209,-1.029 0.629,-1.414 0.417,-0.38 0.905,-0.574 1.463,-0.574 0.487,0 1.151,0.176 1.987,0.523 0.837,0.35 1.813,0.734 2.93,1.15 1.114,0.418 2.318,0.803 3.608,1.152 1.291,0.351 2.632,0.523 4.029,0.523 1.183,0 2.405,-0.12 3.661,-0.367 1.255,-0.244 2.405,-0.661 3.451,-1.256 1.047,-0.59 1.9,-1.375 2.564,-2.354 0.662,-0.974 0.993,-2.159 0.993,-3.556 0,-1.882 -0.627,-3.416 -1.883,-4.603 -1.254,-1.184 -2.808,-2.248 -4.656,-3.191 -1.847,-0.942 -3.868,-1.846 -6.067,-2.719 -2.196,-0.872 -4.219,-1.951 -6.066,-3.244 -1.85,-1.289 -3.4,-2.893 -4.656,-4.811 -1.257,-1.917 -1.883,-4.342 -1.883,-7.271 0,-2.232 0.434,-4.114 1.309,-5.648 0.871,-1.534 2.038,-2.791 3.503,-3.768 1.465,-0.974 3.138,-1.689 5.021,-2.143 1.884,-0.452 3.801,-0.681 5.755,-0.681 4.531,0 8.996,0.628 13.391,1.885 0.207,0.278 0.418,0.557 0.626,0.837 0.211,0.278 0.384,0.592 0.524,0.941 v 2.929 c 0,0.418 -0.158,0.854 -0.471,1.307 -0.313,0.454 -0.716,0.679 -1.203,0.679 -1.046,0 -2.093,-0.121 -3.14,-0.365 -1.045,-0.244 -2.109,-0.522 -2.919,-0.837 -1.352,-0.314 -2.433,-0.609 -3.513,-0.889 -1.082,-0.278 -2.181,-0.419 -3.295,-0.419 -0.976,0 -2.006,0.089 -3.085,0.261 -1.083,0.176 -2.06,0.507 -2.931,0.995 -0.873,0.489 -1.586,1.115 -2.145,1.883 -0.558,0.767 -0.837,1.778 -0.837,3.033 0,1.955 0.628,3.542 1.882,4.761 1.258,1.22 2.808,2.302 4.656,3.243 1.848,0.941 3.872,1.848 6.069,2.719 2.195,0.873 4.217,1.954 6.067,3.244 1.847,1.291 3.4,2.894 4.656,4.812 1.255,1.919 1.882,4.34 1.882,7.27 0,2.442 -0.507,4.517 -1.517,6.224 z"
         fill-rule="nonzero"
         fill="#0071bc"
         id="path14" />
      <path
         d="m 215.03,149.217 -0.627,1.149 c -1.604,1.046 -3.488,1.83 -5.648,2.353 -2.163,0.524 -4.221,0.786 -6.172,0.786 -2.72,0 -4.954,-0.402 -6.696,-1.204 -1.744,-0.75 -3.122,-1.917 -4.132,-3.347 -1.011,-1.43 -1.71,-3.14 -2.093,-5.127 -0.383,-1.987 -0.574,-4.2 -0.574,-6.643 V 110.3 h -6.172 l -1.257,-1.047 -0.418,-0.941 v -2.302 l 0.313,-0.733 c 0.489,-0.627 1.047,-1.046 1.674,-1.254 h 5.86 c 0.138,-2.231 0.209,-4.4634 0.209,-6.6973 0,-2.3002 0.033,-4.5648 0.104,-6.7978 0.209,-0.2793 0.505,-0.575 0.89,-0.8899 0.381,-0.3139 0.748,-0.5395 1.098,-0.6797 h 2.405 l 1.256,1.0455 0.523,0.9417 v 13.0775 h 16.319 c 0.349,0.208 0.681,0.507 0.995,0.889 0.313,0.384 0.539,0.749 0.679,1.098 v 2.302 c -0.14,0.349 -0.418,0.732 -0.837,1.151 -0.418,0.419 -0.801,0.697 -1.151,0.837 h -16.005 v 26.884 c 0,1.187 0.086,2.372 0.262,3.558 0.172,1.187 0.522,2.284 1.046,3.295 0.523,1.011 1.237,1.83 2.144,2.459 0.905,0.628 2.056,0.941 3.453,0.941 1.115,0 2.249,-0.191 3.4,-0.574 1.15,-0.384 2.212,-0.787 3.191,-1.204 0.976,-0.42 1.83,-0.819 2.562,-1.203 0.731,-0.383 1.237,-0.576 1.517,-0.576 0.837,0 1.376,0.315 1.622,0.942 0.244,0.628 0.329,1.254 0.26,1.882 z"
         fill-rule="nonzero"
         fill="#0071bc"
         id="path16" />
      <path
         d="m 257.921,116.839 c -0.559,-1.709 -1.344,-3.226 -2.354,-4.552 -1.012,-1.326 -2.267,-2.389 -3.765,-3.19 -1.502,-0.802 -3.262,-1.204 -5.285,-1.204 -4.533,0 -8.263,1.36 -11.192,4.079 -2.93,2.721 -4.568,6.349 -4.919,10.881 h 3.245 c 4.253,0 8.489,-0.035 12.711,-0.106 4.218,-0.068 8.421,-0.277 12.605,-0.628 -0.141,-1.811 -0.489,-3.571 -1.046,-5.28 z m 7.165,10.408 c -0.314,0.349 -0.61,0.663 -0.889,0.941 -5.649,0.211 -11.281,0.403 -16.895,0.575 -5.615,0.175 -11.243,0.262 -16.896,0.262 0.071,2.58 0.454,4.987 1.151,7.217 0.697,2.235 1.693,4.186 2.983,5.86 1.29,1.674 2.946,2.982 4.969,3.923 2.023,0.941 4.463,1.412 7.324,1.412 1.603,0 3.242,-0.244 4.916,-0.733 1.673,-0.487 3.226,-1.01 4.655,-1.569 1.43,-0.557 2.649,-1.08 3.661,-1.568 1.011,-0.488 1.622,-0.733 1.831,-0.733 0.976,0 1.553,0.454 1.725,1.361 0.174,0.907 0.263,1.709 0.263,2.405 v 1.569 l -0.627,1.15 c -2.302,1.397 -4.954,2.442 -7.951,3.139 -3,0.697 -5.825,1.047 -8.473,1.047 -4.394,0 -8.073,-0.682 -11.038,-2.04 -2.964,-1.361 -5.334,-3.258 -7.113,-5.703 -1.78,-2.438 -3.053,-5.334 -3.819,-8.683 -0.769,-3.346 -1.15,-7.008 -1.15,-10.983 0,-3.556 0.486,-6.834 1.464,-9.833 0.977,-2.999 2.422,-5.561 4.343,-7.69 1.916,-2.128 4.303,-3.783 7.164,-4.97 2.86,-1.184 6.137,-1.778 9.833,-1.778 3.697,0 6.783,0.663 9.259,1.989 2.476,1.325 4.447,3.122 5.911,5.387 1.465,2.266 2.51,4.864 3.138,7.793 0.628,2.93 0.941,5.999 0.941,9.206 -0.14,0.35 -0.366,0.698 -0.68,1.047 z"
         fill-rule="nonzero"
         fill="#0071bc"
         id="path18" />
      <path
         d="m 343.387,152.092 c -0.418,0.384 -0.835,0.645 -1.254,0.785 h -2.617 c -0.349,-0.14 -0.732,-0.419 -1.15,-0.837 -0.417,-0.419 -0.697,-0.8 -0.836,-1.151 v -30.861 c 0,-3.556 -0.855,-6.434 -2.564,-8.63 -1.709,-2.197 -4.445,-3.297 -8.21,-3.297 -1.536,0 -3.105,0.316 -4.709,0.944 -1.604,0.626 -3.051,1.481 -4.342,2.562 -1.29,1.082 -2.354,2.337 -3.19,3.766 -0.836,1.431 -1.256,2.982 -1.256,4.655 v 30.861 c -0.141,0.351 -0.418,0.732 -0.837,1.151 -0.418,0.418 -0.802,0.697 -1.15,0.837 h -2.72 c -0.35,-0.14 -0.733,-0.419 -1.15,-0.837 -0.42,-0.419 -0.698,-0.8 -0.838,-1.151 v -30.861 c 0,-3.415 -0.854,-6.259 -2.563,-8.474 -1.709,-2.317 -4.411,-3.453 -8.107,-3.453 -1.605,0 -3.208,0.316 -4.813,0.944 -1.604,0.626 -3.05,1.481 -4.341,2.562 -1.291,1.082 -2.353,2.353 -3.191,3.818 -0.836,1.465 -1.256,3.034 -1.256,4.707 v 30.757 c -0.14,0.351 -0.418,0.732 -0.837,1.151 -0.417,0.418 -0.801,0.697 -1.149,0.837 h -2.616 c -0.419,-0.14 -0.838,-0.401 -1.255,-0.785 -0.419,-0.383 -0.697,-0.785 -0.836,-1.203 v -46.342 c 0.208,-0.629 0.628,-1.188 1.253,-1.675 l 0.838,-0.314 h 2.197 l 0.837,0.314 1.15,1.256 0.21,3.973 c 1.813,-2.022 3.905,-3.538 6.276,-4.549 2.371,-1.012 4.882,-1.517 7.533,-1.517 3.068,0 5.979,0.75 8.735,2.249 2.754,1.501 4.934,3.541 6.538,6.119 1.742,-2.578 3.991,-4.618 6.748,-6.119 2.754,-1.499 5.701,-2.249 8.841,-2.249 5.716,0 10.058,1.587 13.024,4.761 2.962,3.173 4.445,7.583 4.445,13.232 v 30.861 c -0.141,0.418 -0.418,0.82 -0.838,1.203 z"
         fill-rule="nonzero"
         fill="#000000"
         id="path20" />
      <path
         d="m 381.519,126.881 c -1.291,-0.174 -2.561,-0.087 -3.819,0.261 -0.558,0.141 -1.238,0.194 -2.04,0.157 -0.801,-0.035 -1.552,-0.016 -2.248,0.051 -1.605,0.14 -3.137,0.42 -4.603,0.837 -1.465,0.42 -2.789,1.031 -3.975,1.832 -1.187,0.802 -2.128,1.831 -2.825,3.086 -0.698,1.255 -1.045,2.825 -1.045,4.707 0,1.257 0.208,2.459 0.627,3.611 0.418,1.15 1.009,2.163 1.779,3.033 0.765,0.872 1.673,1.586 2.719,2.144 1.046,0.559 2.231,0.836 3.556,0.836 2.93,0 5.372,-0.574 7.324,-1.724 1.952,-1.151 3.506,-2.669 4.655,-4.552 1.151,-1.883 1.969,-3.991 2.459,-6.33 0.487,-2.334 0.732,-4.723 0.732,-7.164 l 0.523,-1.047 c -1.255,0.351 -2.53,0.436 -3.819,0.262 z m 9.259,25.211 c -0.42,0.385 -0.838,0.645 -1.254,0.785 h -2.199 l -0.837,-0.418 c -0.208,-0.209 -0.417,-0.436 -0.628,-0.681 -0.208,-0.244 -0.384,-0.538 -0.522,-0.889 l -0.104,-5.126 c -1.883,2.51 -4.15,4.429 -6.8,5.755 -2.652,1.325 -5.544,1.986 -8.684,1.986 -2.301,0 -4.411,-0.383 -6.329,-1.151 -1.868,-0.766 -3.592,-1.83 -5.022,-3.191 -1.43,-1.359 -2.527,-3.015 -3.294,-4.968 -0.767,-1.951 -1.151,-4.08 -1.151,-6.382 0,-2.859 0.486,-5.23 1.465,-7.113 0.977,-1.883 2.283,-3.435 3.922,-4.655 1.638,-1.22 3.52,-2.145 5.649,-2.772 2.127,-0.628 4.342,-1.063 6.643,-1.308 2.303,-0.243 4.604,-0.383 6.905,-0.42 2.301,-0.034 4.461,-0.05 6.486,-0.05 v -4.186 c 0,-3.624 -0.96,-6.068 -2.876,-7.321 -1.92,-1.257 -4.551,-1.886 -7.899,-1.886 -1.674,0 -3.367,0.262 -5.074,0.785 -1.71,0.524 -3.277,1.118 -4.706,1.779 -1.431,0.663 -2.652,1.255 -3.663,1.779 -1.012,0.524 -1.622,0.784 -1.831,0.784 -0.977,0 -1.552,-0.471 -1.727,-1.412 -0.173,-0.941 -0.261,-1.76 -0.261,-2.457 v -1.571 l 0.629,-1.255 c 2.44,-0.907 4.532,-1.654 6.276,-2.249 1.744,-0.592 3.557,-1.115 5.44,-1.569 1.883,-0.453 3.487,-0.68 4.812,-0.68 2.789,0 5.265,0.227 7.427,0.68 2.162,0.454 3.993,1.254 5.492,2.405 1.5,1.151 2.633,2.721 3.401,4.708 0.766,1.988 1.151,4.483 1.151,7.48 v 33.581 c -0.141,0.418 -0.419,0.82 -0.837,1.203 z"
         fill-rule="nonzero"
         fill="#000000"
         id="path22" />
      <path
         d="m 435.342,149.217 -0.626,1.149 c -1.605,1.046 -3.489,1.83 -5.65,2.353 -2.163,0.524 -4.221,0.786 -6.172,0.786 -2.72,0 -4.953,-0.402 -6.695,-1.204 -1.745,-0.75 -3.121,-1.917 -4.131,-3.347 -1.013,-1.43 -1.71,-3.14 -2.094,-5.127 -0.383,-1.987 -0.575,-4.2 -0.575,-6.643 V 110.3 h -6.173 l -1.255,-1.047 -0.418,-0.941 v -2.302 l 0.313,-0.733 c 0.488,-0.627 1.047,-1.046 1.674,-1.254 h 5.859 c 0.14,-2.231 0.208,-4.4634 0.208,-6.6973 0,-2.3002 0.035,-4.5648 0.106,-6.7978 0.209,-0.2793 0.505,-0.575 0.889,-0.8899 0.382,-0.3139 0.749,-0.5395 1.099,-0.6797 h 2.405 l 1.255,1.0455 0.523,0.9417 v 13.0775 h 16.32 c 0.349,0.208 0.68,0.507 0.994,0.889 0.314,0.384 0.541,0.749 0.682,1.098 v 2.302 c -0.141,0.349 -0.421,0.732 -0.838,1.151 -0.42,0.419 -0.803,0.697 -1.152,0.837 h -16.006 v 26.884 c 0,1.187 0.088,2.372 0.262,3.558 0.173,1.187 0.524,2.284 1.046,3.295 0.524,1.011 1.239,1.83 2.145,2.459 0.905,0.628 2.056,0.941 3.453,0.941 1.115,0 2.248,-0.191 3.399,-0.574 1.151,-0.384 2.214,-0.787 3.192,-1.204 0.976,-0.42 1.829,-0.819 2.562,-1.203 0.733,-0.383 1.236,-0.576 1.516,-0.576 0.838,0 1.377,0.315 1.622,0.942 0.244,0.628 0.331,1.254 0.261,1.882 z"
         fill-rule="nonzero"
         fill="#000000"
         id="path24" />
      <path
         d="m 485.451,151.778 c -0.208,0.245 -0.419,0.472 -0.628,0.68 l -0.837,0.419 h -2.615 c -0.418,-0.14 -0.837,-0.4 -1.255,-0.785 -0.419,-0.383 -0.699,-0.785 -0.837,-1.203 v -30.861 c 0,-4.044 -1.292,-7.044 -3.871,-8.996 -2.581,-1.954 -5.753,-2.931 -9.52,-2.931 -1.605,0 -3.278,0.28 -5.02,0.837 -1.745,0.56 -3.386,1.344 -4.918,2.355 -1.535,1.011 -2.79,2.233 -3.766,3.662 -0.977,1.431 -1.466,3.05 -1.466,4.865 v 31.069 c -0.14,0.418 -0.417,0.82 -0.835,1.203 -0.418,0.385 -0.837,0.645 -1.254,0.785 h -2.616 l -0.838,-0.419 c -0.21,-0.208 -0.418,-0.435 -0.628,-0.68 -0.209,-0.244 -0.383,-0.538 -0.523,-0.889 V 75.5677 c 0.14,-0.3476 0.314,-0.6452 0.523,-0.89 0.21,-0.2428 0.418,-0.4704 0.628,-0.6787 l 0.838,-0.4205 h 2.616 c 0.417,0.1412 0.836,0.4032 1.254,0.7863 0.418,0.3849 0.695,0.7833 0.835,1.2029 v 32.3263 c 1.954,-2.023 4.273,-3.505 6.959,-4.446 2.683,-0.942 5.421,-1.413 8.211,-1.413 2.998,0 5.718,0.332 8.16,0.993 2.441,0.664 4.55,1.727 6.329,3.191 1.779,1.465 3.155,3.332 4.132,5.597 0.975,2.268 1.465,5.005 1.465,8.212 v 30.861 c -0.141,0.351 -0.313,0.645 -0.523,0.889 z"
         fill-rule="nonzero"
         fill="#000000"
         id="path26" />
      <path
         d="m 501.248,152.197 c -0.351,0.313 -0.699,0.54 -1.048,0.68 h -3.033 l -1.256,-1.046 -0.523,-0.942 v -46.342 c 0.21,-0.629 0.627,-1.188 1.255,-1.675 l 0.733,-0.314 h 2.721 l 0.732,0.314 c 0.628,0.487 1.045,1.046 1.253,1.675 v 46.76 c -0.208,0.28 -0.487,0.578 -0.834,0.89 z m 0.417,-59.1582 -0.836,0.3139 h -3.977 l -0.837,-0.3139 -0.835,-0.7334 -0.42,-0.8352 v -3.9764 c 0.14,-0.3484 0.315,-0.6441 0.525,-0.8889 0.208,-0.2429 0.417,-0.4704 0.626,-0.6816 l 0.837,-0.4176 h 3.976 c 0.419,0.1411 0.837,0.4032 1.256,0.7853 0.418,0.384 0.695,0.7843 0.836,1.2028 v 3.9764 c -0.281,0.767 -0.664,1.2902 -1.151,1.5686 z"
         fill-rule="nonzero"
         fill="#000000"
         id="path28" />
      <path
         d="m 552.089,148.169 -0.522,1.15 c -2.443,1.396 -5.18,2.443 -8.214,3.14 -3.034,0.696 -5.947,1.046 -8.734,1.046 -4.256,0 -7.846,-0.682 -10.775,-2.04 -2.928,-1.361 -5.3,-3.244 -7.115,-5.65 -1.813,-2.405 -3.121,-5.247 -3.922,-8.524 -0.802,-3.28 -1.203,-6.836 -1.203,-10.673 0,-3.694 0.471,-7.059 1.412,-10.093 0.942,-3.036 2.37,-5.651 4.289,-7.847 1.918,-2.197 4.306,-3.888 7.166,-5.075 2.858,-1.183 6.241,-1.778 10.148,-1.778 2.578,0 5.176,0.21 7.794,0.627 2.615,0.42 5.107,1.118 7.478,2.095 l 0.837,1.254 v 3.452 c 0,0.558 -0.173,1.029 -0.522,1.413 -0.348,0.383 -0.802,0.575 -1.36,0.575 -0.698,0 -1.588,-0.173 -2.667,-0.523 -1.082,-0.349 -2.268,-0.731 -3.557,-1.151 -1.292,-0.418 -2.616,-0.801 -3.977,-1.149 -1.359,-0.35 -2.702,-0.524 -4.026,-0.524 -2.861,0 -5.319,0.487 -7.377,1.465 -2.055,0.976 -3.765,2.3 -5.126,3.974 -1.359,1.673 -2.351,3.646 -2.98,5.91 -0.627,2.267 -0.942,4.727 -0.942,7.375 0,2.652 0.277,5.231 0.836,7.742 0.559,2.511 1.501,4.728 2.826,6.643 1.323,1.919 3.016,3.47 5.073,4.656 2.057,1.186 4.62,1.777 7.69,1.777 1.604,0 3.26,-0.244 4.97,-0.732 1.707,-0.486 3.329,-1.009 4.863,-1.569 1.533,-0.557 2.842,-1.079 3.923,-1.568 1.081,-0.488 1.795,-0.733 2.145,-0.733 0.696,0.35 1.133,0.837 1.308,1.464 0.171,0.629 0.261,1.292 0.261,1.989 z"
         fill-rule="nonzero"
         fill="#000000"
         id="path30" />
      <path
         d="m 591.893,146.338 c -1.012,1.71 -2.354,3.086 -4.027,4.131 -1.674,1.049 -3.557,1.816 -5.65,2.302 -2.091,0.489 -4.183,0.734 -6.275,0.734 -2.234,0 -4.535,-0.209 -6.905,-0.628 -2.373,-0.419 -4.603,-1.046 -6.696,-1.884 l -0.788,-1.254 v -3.662 c 0,-0.557 0.171,-1.029 0.579,-1.414 0.42,-0.38 0.905,-0.574 1.465,-0.574 0.486,0 1.15,0.176 1.987,0.523 0.837,0.35 1.813,0.734 2.929,1.15 1.116,0.418 2.319,0.803 3.61,1.152 1.29,0.351 2.63,0.523 4.027,0.523 1.185,0 2.406,-0.12 3.662,-0.367 1.254,-0.244 2.405,-0.661 3.452,-1.256 1.046,-0.59 1.899,-1.375 2.563,-2.354 0.662,-0.974 0.994,-2.159 0.994,-3.556 0,-1.882 -0.628,-3.416 -1.883,-4.603 -1.255,-1.184 -2.809,-2.248 -4.657,-3.191 -1.847,-0.942 -3.869,-1.846 -6.067,-2.719 -2.196,-0.872 -4.22,-1.951 -6.066,-3.244 -1.849,-1.289 -3.401,-2.893 -4.656,-4.811 -1.256,-1.917 -1.884,-4.342 -1.884,-7.271 0,-2.232 0.436,-4.114 1.309,-5.648 0.872,-1.534 2.039,-2.791 3.504,-3.768 1.465,-0.974 3.137,-1.689 5.021,-2.143 1.884,-0.452 3.801,-0.681 5.754,-0.681 4.533,0 8.997,0.628 13.392,1.885 0.207,0.278 0.417,0.557 0.626,0.837 0.21,0.278 0.383,0.592 0.795,0.941 v 2.929 c 0,0.418 -0.428,0.854 -0.742,1.307 -0.314,0.454 -0.717,0.679 -1.203,0.679 -1.047,0 -2.093,-0.121 -3.14,-0.365 -1.045,-0.244 -2.108,-0.522 -3.189,-0.837 -1.082,-0.314 -2.164,-0.609 -3.244,-0.889 -1.082,-0.278 -2.181,-0.419 -3.295,-0.419 -0.977,0 -2.006,0.089 -3.085,0.261 -1.082,0.176 -2.059,0.507 -2.93,0.995 -0.873,0.489 -1.587,1.115 -2.144,1.883 -0.56,0.767 -0.838,1.778 -0.838,3.033 0,1.955 0.628,3.542 1.883,4.761 1.257,1.22 2.807,2.302 4.656,3.243 1.847,0.941 3.871,1.848 6.067,2.719 2.196,0.873 4.218,1.954 6.067,3.244 1.847,1.291 3.402,2.894 4.655,4.812 1.257,1.919 1.883,4.34 1.883,7.27 0,2.442 -0.506,4.517 -1.516,6.224 z"
         fill-rule="nonzero"
         fill="#000000"
         id="path32" />
      <rect
         x="644.45398"
         y="25.1651"
         width="27.194901"
         height="27.193001"
         fill="#1a171b"
         id="rect34" />
      <g
         id="g51">
        <defs
           id="defs47">
          <linearGradient
             id="linearGradient178"
             gradientUnits="userSpaceOnUse"
             x1="1.12218e-05"
             y1="0.49999499"
             x2="1.00002"
             y2="0.49999499">
            <stop
               offset="0"
               stop-color="#0970B3"
               id="stop168" />
            <stop
               offset="0.0368042"
               stop-color="#0970B3"
               id="stop170" />
            <stop
               offset="0.538718"
               stop-color="#0A4F9A"
               id="stop172" />
            <stop
               offset="0.889572"
               stop-color="#0C2F82"
               id="stop174" />
            <stop
               offset="1"
               stop-color="#0C2F82"
               id="stop176" />
          </linearGradient>
        </defs>
        <rect
           x="617.258"
           y="47.156799"
           width="27.194799"
           height="27.194901"
           fill="url(#id_idp289761280)"
           id="rect49"
           style="fill:url(#id_idp289761280)" />
      </g>
      <g
         id="g68">
        <defs
           id="defs64">
          <linearGradient
             id="linearGradient193"
             gradientUnits="userSpaceOnUse"
             x1="-1.34681e-05"
             y1="0.50000703"
             x2="0.999991"
             y2="0.50000703">
            <stop
               offset="0"
               stop-color="#0970B3"
               id="stop183" />
            <stop
               offset="0.0368042"
               stop-color="#0970B3"
               id="stop185" />
            <stop
               offset="0.538718"
               stop-color="#0A4F9A"
               id="stop187" />
            <stop
               offset="0.889572"
               stop-color="#0C2F82"
               id="stop189" />
            <stop
               offset="1"
               stop-color="#0C2F82"
               id="stop191" />
          </linearGradient>
        </defs>
        <rect
           x="658.05103"
           y="41.543598"
           width="27.191"
           height="27.191999"
           fill="url(#id_idp289764352)"
           id="rect66"
           style="fill:url(#id_idp289764352)" />
      </g>
      <g
         id="g98">
        <defs
           id="defs94">
          <linearGradient
             id="linearGradient217"
             gradientUnits="userSpaceOnUse"
             x1="1.12218e-05"
             y1="0.499991"
             x2="1.00002"
             y2="0.499991">
            <stop
               offset="0"
               stop-color="#0970B3"
               id="stop207" />
            <stop
               offset="0.0368042"
               stop-color="#0970B3"
               id="stop209" />
            <stop
               offset="0.538718"
               stop-color="#0A4F9A"
               id="stop211" />
            <stop
               offset="0.889572"
               stop-color="#0C2F82"
               id="stop213" />
            <stop
               offset="1"
               stop-color="#0C2F82"
               id="stop215" />
          </linearGradient>
        </defs>
        <rect
           x="617.258"
           y="47.361198"
           width="27.194799"
           height="27.194901"
           fill="url(#id_idp289772288)"
           id="rect96"
           style="fill:url(#id_idp289772288)" />
      </g>
      <g
         id="g115">
        <defs
           id="defs111">
          <linearGradient
             id="linearGradient232"
             gradientUnits="userSpaceOnUse"
             x1="-1.34681e-05"
             y1="0.50000304"
             x2="0.999991"
             y2="0.50000304">
            <stop
               offset="0"
               stop-color="#0970B3"
               id="stop222" />
            <stop
               offset="0.0368042"
               stop-color="#0970B3"
               id="stop224" />
            <stop
               offset="0.538718"
               stop-color="#0A4F9A"
               id="stop226" />
            <stop
               offset="0.889572"
               stop-color="#0C2F82"
               id="stop228" />
            <stop
               offset="1"
               stop-color="#0C2F82"
               id="stop230" />
          </linearGradient>
        </defs>
        <rect
           x="658.05103"
           y="41.7491"
           width="27.191"
           height="27.191"
           fill="url(#id_idp289778048)"
           id="rect113"
           style="fill:url(#id_idp289778048)" />
      </g>
      <rect
         x="630.85101"
         y="68.944"
         width="27.199699"
         height="27.191"
         fill="#1a171b"
         id="rect117" />
    </g>
  </g>
</svg>
